<svg width="100" height="100" viewBox="0 0 100 100" xmlns="http://www.w3.org/2000/svg">
  <!-- 心形图标 -->
  <path d="M50 85 C25 65, 0 45, 0 25 C0 10, 15 0, 30 0 C40 0, 45 5, 50 15 C55 5, 60 0, 70 0 C85 0, 100 10, 100 25 C100 45, 75 65, 50 85 Z" fill="#1a73e8" />
  
  <!-- 飞机图标 -->
  <path d="M50 40 L60 30 L75 35 L60 45 L75 65 L65 70 L50 50 L35 70 L25 65 L40 45 L25 35 L40 30 Z" fill="white" />
  
  <!-- 光晕效果 -->
  <circle cx="50" cy="40" r="5" fill="white" opacity="0.6">
    <animate attributeName="r" values="5;8;5" dur="2s" repeatCount="indefinite" />
    <animate attributeName="opacity" values="0.6;0.2;0.6" dur="2s" repeatCount="indefinite" />
  </circle>
</svg>